<svg version="1.1" id="Layer_1" xmlns="http://www.w3.org/2000/svg" xmlns:xlink="http://www.w3.org/1999/xlink" x="0px" y="0px"
	 width="100%" viewBox="0 0 150 150" enable-background="new 0 0 150 150" xml:space="preserve">
<path fill="#040302" opacity="1.000000" stroke="none" 
	d="
M87.000000,1.000000 
	C93.021156,1.000000 99.042305,1.000000 105.445541,1.378641 
	C104.167725,2.172999 102.452866,2.443221 100.862785,3.043792 
	C99.141411,3.693948 97.536438,4.652262 95.184319,5.822703 
	C96.866463,7.064684 97.329491,7.621936 97.909218,7.800665 
	C102.749268,9.292856 106.726143,11.584819 108.033401,17.053991 
	C108.231369,17.882231 109.964920,18.936201 110.925636,18.876650 
	C113.654167,18.707523 116.333420,17.821697 119.063927,17.584124 
	C121.862892,17.340593 124.699547,17.530144 127.786522,17.530144 
	C127.234962,19.894041 126.084412,22.237858 126.658646,22.790928 
	C129.971054,25.981312 127.973671,29.579769 127.677933,32.868217 
	C125.858269,32.169525 124.353668,31.610920 122.550728,30.912392 
	C115.351616,22.885817 105.969307,19.028843 96.497406,14.783220 
	C95.542076,14.374807 94.767647,14.206777 93.984230,14.014053 
	C93.975235,13.989361 93.937317,14.025756 93.850571,13.916292 
	C93.578018,13.686536 93.407593,13.705302 92.908592,13.631062 
	C90.950699,13.150817 89.336754,12.902638 87.490692,12.442377 
	C86.846794,12.213432 86.435013,12.196570 85.536613,12.087717 
	C84.471031,12.275830 83.892059,12.555935 83.275131,12.555235 
	C82.575111,12.095204 81.913055,11.915977 80.908012,11.551015 
	C80.050652,11.399597 79.536270,11.433917 78.585793,11.345890 
	C74.805679,11.818838 71.461662,12.414132 67.901512,12.942284 
	C67.685379,12.875141 67.233109,12.893594 67.068405,12.598997 
	C66.266121,12.304731 65.628540,12.305062 64.579506,12.287317 
	C63.668068,12.478928 63.168083,12.688613 62.569412,12.817511 
	C62.272339,12.734107 62.140343,12.826565 61.791656,12.988141 
	C61.331047,13.028478 61.153511,13.094769 60.659607,13.121307 
	C59.561375,13.384974 58.779507,13.688394 57.620514,13.982765 
	C52.964161,15.705793 48.684933,17.437870 43.991646,19.165932 
	C43.018173,19.683712 42.458755,20.205505 41.696770,20.912058 
	C39.955505,22.286797 38.416809,23.476780 36.533417,24.740084 
	C32.804577,28.238873 29.420435,31.664343 25.774231,35.292553 
	C23.237991,39.625336 20.963816,43.755375 18.323875,47.881878 
	C8.787164,66.386513 8.764165,84.931236 17.761305,103.856094 
	C19.835421,107.510124 21.884033,110.819984 24.020596,114.456512 
	C30.338547,123.167549 34.151333,126.033829 37.038372,124.227165 
	C33.096668,119.596611 29.176069,114.990845 25.172365,110.066048 
	C23.381178,106.833054 21.673094,103.919106 19.931746,100.633400 
	C12.451803,82.676018 13.582594,65.276154 21.184465,47.715019 
	C23.522757,44.269222 25.706617,41.121502 28.147369,37.767227 
	C30.239828,35.692802 32.075394,33.824928 34.274494,31.977757 
	C35.932850,32.135166 37.227673,32.271877 39.905865,32.554649 
	C38.011845,31.025459 37.208195,30.376606 36.567131,29.472519 
	C37.142860,28.777700 37.556000,28.338121 38.234352,27.826645 
	C38.967525,27.489937 39.435490,27.225126 40.228638,26.950092 
	C40.963902,26.516926 41.373985,26.093981 41.865189,25.786346 
	C41.946301,25.901655 41.748131,25.701077 42.098206,25.788666 
	C43.638153,24.926517 44.828030,23.976778 46.015049,23.009686 
	C46.012192,22.992334 46.038864,23.016964 46.233688,22.967108 
	C46.684341,22.797516 46.865326,22.606760 47.176636,22.187418 
	C47.552719,22.006750 47.723629,21.983652 48.130558,21.903912 
	C48.671467,21.701990 48.896992,21.477116 49.048637,21.108643 
	C49.054119,21.044638 49.179260,21.073715 49.535126,21.076477 
	C52.483639,21.376398 55.662071,22.976284 56.305214,18.187462 
	C57.184738,17.963261 57.786385,17.871563 58.689762,17.791800 
	C59.323734,17.595951 59.655972,17.388172 60.228256,17.071224 
	C60.643772,16.972984 60.819233,16.983913 61.355255,17.016087 
	C62.812935,16.726828 63.910061,16.416323 65.292007,15.993437 
	C65.981796,15.884764 66.386749,15.888474 67.164749,15.937348 
	C68.705307,15.720955 69.872818,15.459396 71.025421,15.118048 
	C71.010513,15.038257 70.963928,14.882740 71.223076,14.936426 
	C71.650040,14.935624 71.817848,14.881135 72.422928,14.878233 
	C74.909821,14.992166 76.959419,15.054511 79.221977,15.346356 
	C80.606888,15.501160 81.778847,15.426463 83.279305,15.316631 
	C84.481567,15.343096 85.355324,15.404695 86.396988,15.648520 
	C86.564880,15.830748 86.966400,16.121912 87.219841,16.364073 
	C88.629219,16.745291 89.785156,16.884348 91.316544,17.012611 
	C93.798859,17.752306 95.905724,18.502794 98.137009,19.430298 
	C98.472984,19.821018 98.727974,19.946444 99.014038,19.992798 
	C99.001686,20.002008 99.015747,19.975821 99.075806,20.331940 
	C101.123108,21.445274 103.110352,22.202492 105.322868,23.002468 
	C105.548149,23.045231 105.982483,23.192423 106.000526,23.558426 
	C108.016197,24.950821 110.013817,25.977215 112.247681,27.030041 
	C112.805710,27.182896 113.007866,27.413971 112.979324,28.052864 
	C113.465721,28.993681 114.063164,29.631334 114.627426,30.280714 
	C114.594254,30.292442 114.559769,30.231100 114.735840,30.596420 
	C116.259880,31.647272 117.607849,32.332802 118.979507,33.009571 
	C119.003197,33.000809 118.986496,33.048489 119.087425,33.263039 
	C119.379944,33.746868 119.635345,33.924290 119.977768,34.003242 
	C120.000969,33.996628 119.985161,34.042221 119.990738,34.429314 
	C120.536362,37.607082 120.859871,40.603447 124.975830,40.021614 
	C125.006386,40.016857 124.971527,40.067944 125.030609,40.260994 
	C125.219231,40.705818 125.416534,40.881508 125.801826,41.210224 
	C125.955826,41.608494 125.989594,41.777649 126.019226,42.307571 
	C126.697327,43.437485 127.379570,44.206619 128.366638,45.142513 
	C130.072662,47.891975 131.473846,50.474682 132.897034,53.447178 
	C134.327118,60.208847 135.735184,66.580727 137.074951,73.402138 
	C136.693802,78.575508 136.380951,83.299332 135.938446,88.377258 
	C133.210419,95.154701 130.612030,101.578056 127.805115,108.269806 
	C125.750145,111.094475 123.903702,113.650749 122.069885,116.213142 
	C122.082504,116.219254 122.031837,116.206863 121.949997,116.570663 
	C121.851135,117.182480 121.834106,117.430496 121.509216,117.737083 
	C120.994781,117.827034 120.788223,117.858406 120.330063,117.920898 
	C119.717957,118.275650 119.357460,118.599281 118.837219,119.228043 
	C114.765114,122.643219 110.852745,125.753281 106.586929,128.941345 
	C100.167061,131.367325 94.100624,133.715286 87.659760,136.115265 
	C85.859146,136.415939 84.432961,136.664581 82.738876,136.825256 
	C82.289177,136.689453 82.107384,136.641602 81.674789,136.411438 
	C80.274170,136.427505 79.124359,136.625854 77.968918,136.926361 
	C77.963287,137.028534 78.091499,137.188034 77.667572,137.124268 
	C75.817123,137.099747 74.390594,137.138992 72.716064,137.070343 
	C72.299896,136.897415 72.131729,136.832382 71.670670,136.531403 
	C70.110214,136.245438 68.842644,136.195419 67.183624,136.179535 
	C62.526203,135.187729 58.260235,134.161804 53.686119,132.944412 
	C48.391075,130.363098 43.404171,127.973267 38.417267,125.583427 
	C40.444656,132.024567 46.303467,132.494476 50.870003,135.478210 
	C57.744854,137.438370 64.369942,139.130066 70.944397,141.191101 
	C68.272362,142.684509 65.715729,144.478561 63.010933,144.740082 
	C60.419605,144.990616 57.674427,143.649918 55.314537,142.951477 
	C55.706432,142.329025 55.947144,141.308395 55.830269,141.265640 
	C53.579227,140.442490 51.286270,139.733994 48.954052,138.635162 
	C46.796856,134.494843 44.648521,136.069458 42.143803,137.969681 
	C40.530151,139.193878 38.431957,139.779388 36.550926,140.651138 
	C35.984070,139.001907 35.409756,137.355194 34.852150,135.702835 
	C34.062416,133.362640 33.600872,130.819260 32.321789,128.789505 
	C31.904385,128.127136 29.364664,128.905350 27.806923,128.819336 
	C26.887161,128.768539 25.992773,128.304092 25.081467,128.045044 
	C23.038643,127.464333 20.992380,126.895721 17.839493,126.011398 
	C17.839493,121.349716 17.839493,115.365517 17.839493,109.053391 
	C12.495670,109.693291 10.126062,107.545258 9.383506,102.952415 
	C8.642900,98.371651 6.634560,94.974045 1.000000,97.000000 
	C1.000000,93.969406 1.000000,90.938812 1.382753,87.453529 
	C3.992347,86.755341 6.219187,86.511848 8.612803,86.250114 
	C7.653023,84.430870 7.058024,82.460045 5.805952,81.089485 
	C2.200698,77.143082 2.450369,75.786240 6.515144,72.193558 
	C8.179587,70.722427 9.658734,67.954308 9.586180,65.832138 
	C9.436172,61.444466 8.209167,57.090523 7.385853,52.730114 
	C6.884375,50.074200 7.548993,48.865143 10.531606,49.672146 
	C13.859711,50.572628 15.507178,48.845997 16.049435,45.695396 
	C16.328955,44.071327 16.876730,42.468964 16.956114,40.839874 
	C17.135004,37.168858 17.967361,34.205482 21.712635,32.310665 
	C22.965506,31.676809 23.399118,29.076868 23.825443,27.284815 
	C24.085188,26.192972 23.616199,24.927763 23.401245,23.126089 
	C28.389910,24.233652 33.196259,25.582737 31.714811,18.155973 
	C33.780514,18.482462 35.396660,18.737898 37.384186,18.991688 
	C38.825974,18.334717 39.896381,17.679394 41.365585,17.016380 
	C45.156891,15.719448 48.549404,14.430202 52.590584,12.894445 
	C50.919163,10.810452 50.062611,9.742475 48.487652,7.778754 
	C50.545456,7.669996 52.407780,7.168444 52.680874,7.622578 
	C54.449703,10.563992 56.792282,9.403516 59.206535,9.091300 
	C60.971020,8.863115 62.877819,8.999188 64.611526,9.422264 
	C68.238380,10.307324 70.793472,9.733277 72.753235,6.073505 
	C74.206680,3.359274 76.729500,1.567811 80.048988,4.205682 
	C81.310120,5.207855 82.797020,5.925924 84.181015,6.773481 
	C85.120674,4.848988 86.060341,2.924494 87.000000,1.000000 
M82.050056,88.725014 
	C85.526672,95.919563 89.003288,103.114113 92.479904,110.308670 
	C93.257607,110.207710 94.035316,110.106750 94.813019,110.005791 
	C98.352776,84.593369 101.892525,59.180950 105.629723,32.351048 
	C100.919281,34.151646 97.897377,35.306789 94.121002,36.658192 
	C89.740280,38.210300 85.440079,40.087860 80.950188,41.198727 
	C78.015785,41.924744 74.583702,42.311462 71.764000,41.498829 
	C64.776329,39.484978 58.036736,36.623249 51.137737,34.277878 
	C49.753120,33.807163 47.047089,33.608326 46.781696,34.161987 
	C46.083061,35.619469 46.134365,37.595661 46.369083,39.298824 
	C46.630718,41.197334 47.678844,42.986500 47.947636,44.885124 
	C51.676613,71.224998 55.320915,97.576859 59.034985,123.918861 
	C59.196030,125.061066 59.829750,126.136627 60.763706,128.635849 
	C62.343208,125.926071 63.299599,124.510529 64.034576,122.988098 
	C69.087349,112.521805 74.059914,102.016617 79.157303,91.572266 
	C79.807762,90.239510 81.031616,89.186600 82.050056,88.725014 
M133.990494,77.275269 
	C133.539688,73.833755 133.867371,70.116859 130.465195,66.202515 
	C130.706848,71.087585 130.621109,74.539009 131.126236,77.901657 
	C131.520187,80.524170 132.821838,80.412659 133.990494,77.275269 
M56.603054,29.476639 
	C54.457264,28.193241 52.311470,26.909842 50.165684,25.626444 
	C49.847305,26.663986 49.528927,27.701529 49.210545,28.739069 
	C51.547020,29.188524 53.883495,29.637978 56.603054,29.476639 
M79.351334,133.418503 
	C76.709923,130.440369 75.102524,130.214081 71.064575,132.728394 
	C73.994942,133.149231 76.378044,133.491486 79.351334,133.418503 
M11.804015,52.407784 
	C11.799615,52.791374 11.795216,53.174965 11.790816,53.558552 
	C11.949998,53.560165 12.247523,53.572571 12.248362,53.561832 
	C12.278140,53.180084 12.280135,52.796169 11.804015,52.407784 
z"/>
<path fill="#000000" opacity="1.000000" stroke="none" 
	d="
M54.996864,143.008545 
	C57.674427,143.649918 60.419605,144.990616 63.010933,144.740082 
	C65.715729,144.478561 68.272362,142.684509 71.341003,141.104828 
	C72.858963,140.770935 73.929680,140.892654 75.052902,141.391876 
	C76.912834,142.484116 78.914467,144.100952 80.494766,143.760742 
	C88.201073,142.101654 95.643700,142.981384 103.166542,144.742966 
	C104.645706,145.089340 106.559021,144.283401 108.073723,143.581039 
	C109.621086,142.863541 110.924324,141.619553 113.038773,140.099792 
	C110.019585,131.681870 116.391502,129.683228 123.235565,128.068588 
	C123.397270,128.030457 123.554825,127.968658 123.718254,127.944717 
	C127.950333,127.324684 129.332413,124.958466 129.100662,120.684708 
	C128.777054,114.716827 130.707870,113.069099 136.707626,113.003670 
	C138.180908,112.987595 139.654541,113.001266 140.171173,113.001266 
	C142.115234,110.219437 144.373428,108.334328 144.778183,106.111702 
	C145.488327,102.212036 143.472595,98.442650 144.066940,94.072754 
	C144.964874,87.470596 143.064148,80.536049 143.390488,73.792984 
	C143.663910,68.142899 145.660385,62.561562 143.000305,57.000401 
	C143.000000,57.000000 143.000610,57.000763 143.331879,56.947941 
	C143.444534,55.929333 143.225922,54.963543 143.005447,53.541992 
	C143.002151,50.952309 143.385925,48.721573 142.881378,46.714108 
	C142.452896,45.009285 140.999359,43.562099 139.840408,41.637436 
	C139.258621,38.953041 138.835815,36.632133 138.586990,35.266232 
	C134.619537,34.790604 131.312210,34.394112 128.002106,33.750286 
	C127.999313,33.502956 127.992989,33.008301 127.992989,33.008301 
	C127.973671,29.579769 129.971054,25.981312 126.658646,22.790928 
	C126.084412,22.237858 127.234962,19.894041 127.786522,17.530144 
	C124.699547,17.530144 121.862892,17.340593 119.063927,17.584124 
	C116.333420,17.821697 113.654167,18.707523 110.925636,18.876650 
	C109.964920,18.936201 108.231369,17.882231 108.033401,17.053991 
	C106.726143,11.584819 102.749268,9.292856 97.909218,7.800665 
	C97.329491,7.621936 96.866463,7.064684 95.184319,5.822703 
	C97.536438,4.652262 99.141411,3.693948 100.862785,3.043792 
	C102.452866,2.443221 104.167725,2.172999 105.913818,1.378641 
	C120.983162,1.000000 135.966324,1.000000 150.974731,1.000000 
	C150.974731,50.927010 150.974731,100.854042 150.974731,150.890533 
	C101.000130,150.890533 51.000107,150.890533 1.000040,150.889221 
	C1.000000,136.237717 1.000000,121.587517 1.357860,106.397713 
	C3.476526,103.944183 4.050582,102.205093 1.000000,101.000000 
	C1.000000,99.933327 1.000000,98.866661 1.000000,97.399994 
	C6.634560,94.974045 8.642900,98.371651 9.383506,102.952415 
	C10.126062,107.545258 12.495670,109.693291 17.839493,109.053391 
	C17.839493,115.365517 17.839493,121.349716 17.839493,126.011398 
	C20.992380,126.895721 23.038643,127.464333 25.081467,128.045044 
	C25.992773,128.304092 26.887161,128.768539 27.806923,128.819336 
	C29.364664,128.905350 31.904385,128.127136 32.321789,128.789505 
	C33.600872,130.819260 34.062416,133.362640 34.852150,135.702835 
	C35.409756,137.355194 35.984070,139.001907 36.550926,140.651138 
	C38.431957,139.779388 40.530151,139.193878 42.143803,137.969681 
	C44.648521,136.069458 46.796856,134.494843 48.793613,138.939423 
	C47.453278,140.072739 46.225475,140.535110 44.834587,140.783722 
	C44.274017,140.624832 43.876530,140.679733 43.479042,140.734619 
	C43.983944,141.156113 44.488846,141.577591 45.230232,142.266968 
	C46.644375,142.688828 47.822029,142.842819 49.185692,143.242950 
	C50.247581,143.326096 51.123459,143.163116 52.374062,143.000885 
	C53.498150,143.003937 54.247509,143.006241 54.996864,143.008545 
M7.549580,109.072937 
	C6.641935,109.906380 5.734290,110.739822 4.826645,111.573265 
	C5.115732,112.109123 5.404819,112.644989 5.693906,113.180847 
	C7.297613,112.646545 8.901320,112.112251 10.505022,111.577950 
	C9.771267,110.737846 9.037512,109.897743 7.549580,109.072937 
M112.216209,5.403898 
	C111.542740,6.166207 110.869263,6.928517 110.195786,7.690824 
	C110.677979,8.043984 111.160179,8.397145 111.642372,8.750308 
	C111.998665,7.815242 112.354965,6.880177 112.216209,5.403898 
M36.786758,144.947342 
	C37.695705,144.732620 38.604652,144.517883 39.513599,144.303162 
	C39.220093,143.816071 38.926586,143.328979 38.633080,142.841888 
	C37.792744,143.494171 36.952408,144.146469 36.786758,144.947342 
M144.918076,35.697926 
	C144.408737,35.438984 143.899414,35.180046 143.390076,34.921101 
	C143.393768,35.657990 143.397476,36.394882 143.401184,37.131767 
	C143.908051,36.867615 144.414917,36.603462 144.918076,35.697926 
z"/>
<path fill="#000000" opacity="1.000000" stroke="none" 
	d="
M37.012806,18.993332 
	C35.396660,18.737898 33.780514,18.482462 31.714811,18.155973 
	C33.196259,25.582737 28.389910,24.233652 23.401245,23.126089 
	C23.616199,24.927763 24.085188,26.192972 23.825443,27.284815 
	C23.399118,29.076868 22.965506,31.676809 21.712635,32.310665 
	C17.967361,34.205482 17.135004,37.168858 16.956114,40.839874 
	C16.876730,42.468964 16.328955,44.071327 16.049435,45.695396 
	C15.507178,48.845997 13.859711,50.572628 10.531606,49.672146 
	C7.548993,48.865143 6.884375,50.074200 7.385853,52.730114 
	C8.209167,57.090523 9.436172,61.444466 9.586180,65.832138 
	C9.658734,67.954308 8.179587,70.722427 6.515144,72.193558 
	C2.450369,75.786240 2.200698,77.143082 5.805952,81.089485 
	C7.058024,82.460045 7.653023,84.430870 8.612803,86.250114 
	C6.219187,86.511848 3.992347,86.755341 1.382753,86.999420 
	C1.000000,81.977905 1.000000,76.955818 1.393497,71.371567 
	C2.075275,65.853264 2.392385,60.898212 2.579040,55.938251 
	C2.590048,55.645721 1.550612,55.313663 1.000000,55.000000 
	C1.000000,37.073223 1.000000,19.146444 1.000000,1.000000 
	C18.686954,1.000000 36.374821,1.000000 54.576012,1.361931 
	C55.727551,2.381320 56.373585,3.611310 57.002697,3.602719 
	C60.896420,3.549548 64.797890,3.322571 68.668388,2.895798 
	C69.505096,2.803539 70.225838,1.659549 71.000000,0.999999 
	C76.022095,1.000000 81.044182,1.000000 86.533142,1.000000 
	C86.060341,2.924494 85.120674,4.848988 84.181015,6.773481 
	C82.797020,5.925924 81.310120,5.207855 80.048988,4.205682 
	C76.729500,1.567811 74.206680,3.359274 72.753235,6.073505 
	C70.793472,9.733277 68.238380,10.307324 64.611526,9.422264 
	C62.877819,8.999188 60.971020,8.863115 59.206535,9.091300 
	C56.792282,9.403516 54.449703,10.563992 52.680874,7.622578 
	C52.407780,7.168444 50.545456,7.669996 48.487652,7.778754 
	C50.062611,9.742475 50.919163,10.810452 52.590584,12.894445 
	C48.549404,14.430202 45.156891,15.719448 41.011597,17.013340 
	C39.241192,17.782228 36.152649,15.143407 37.012806,18.993332 
M49.447948,3.710882 
	C49.712936,3.988883 49.977924,4.266884 50.242912,4.544885 
	C50.358009,4.435075 50.473106,4.325266 50.588203,4.215456 
	C50.322891,3.937426 50.057579,3.659396 49.447948,3.710882 
z"/>
<path fill="#040302" opacity="1.000000" stroke="none" 
	d="
M70.533142,0.999999 
	C70.225838,1.659549 69.505096,2.803539 68.668388,2.895798 
	C64.797890,3.322571 60.896420,3.549548 57.002697,3.602719 
	C56.373585,3.611310 55.727551,2.381320 55.044670,1.361931 
	C60.022091,1.000000 65.044182,1.000000 70.533142,0.999999 
z"/>
<path fill="#040302" opacity="1.000000" stroke="none" 
	d="
M1.000000,55.466862 
	C1.550612,55.313663 2.590048,55.645721 2.579040,55.938251 
	C2.392385,60.898212 2.075275,65.853264 1.393497,70.904701 
	C1.000000,65.977905 1.000000,60.955814 1.000000,55.466862 
z"/>
<path fill="#040302" opacity="1.000000" stroke="none" 
	d="
M1.000000,101.416664 
	C4.050582,102.205093 3.476526,103.944183 1.357860,105.929054 
	C1.000000,104.611107 1.000000,103.222221 1.000000,101.416664 
z"/>
<path fill="#FBFBFB" opacity="1.000000" stroke="none" 
	d="
M81.989830,88.004044 
	C81.031616,89.186600 79.807762,90.239510 79.157303,91.572266 
	C74.059914,102.016617 69.087349,112.521805 64.034576,122.988098 
	C63.299599,124.510529 62.343208,125.926071 60.763706,128.635849 
	C59.829750,126.136627 59.196030,125.061066 59.034985,123.918861 
	C55.320915,97.576859 51.676613,71.224998 47.947636,44.885124 
	C47.678844,42.986500 46.630718,41.197334 46.369083,39.298824 
	C46.134365,37.595661 46.083061,35.619469 46.781696,34.161987 
	C47.047089,33.608326 49.753120,33.807163 51.137737,34.277878 
	C58.036736,36.623249 64.776329,39.484978 71.764000,41.498829 
	C74.583702,42.311462 78.015785,41.924744 80.950188,41.198727 
	C85.440079,40.087860 89.740280,38.210300 94.523277,36.975052 
	C94.944199,38.122715 94.962845,38.953522 94.654724,39.960541 
	C89.997902,41.729649 85.667847,43.322536 81.150909,44.984173 
	C87.084427,47.241844 92.545547,49.319778 98.245926,51.488739 
	C93.778160,60.851448 89.930847,69.467072 85.562431,77.809853 
	C83.683380,81.398453 83.287132,84.488876 84.971420,87.922363 
	C83.694214,87.971458 82.842018,87.987747 81.989830,88.004044 
z"/>
<path fill="#EAEAEA" opacity="1.000000" stroke="none" 
	d="
M94.981491,39.784328 
	C94.962845,38.953522 94.944199,38.122715 94.900513,36.876923 
	C97.897377,35.306789 100.919281,34.151646 105.629723,32.351048 
	C101.892525,59.180950 98.352776,84.593369 94.813019,110.005791 
	C94.035316,110.106750 93.257607,110.207710 92.479904,110.308670 
	C89.003288,103.114113 85.526672,95.919563 82.019943,88.364525 
	C82.842018,87.987747 83.694214,87.971458 85.217789,88.152817 
	C87.703041,92.153519 89.516914,95.956566 91.330780,99.759613 
	C91.774651,99.718269 92.218513,99.676933 92.662384,99.635590 
	C95.519852,79.204025 98.377327,58.772465 101.286598,37.970547 
	C98.755157,38.698761 96.868324,39.241547 94.981491,39.784328 
z"/>
<path fill="#DDBF54" opacity="1.000000" stroke="none" 
	d="
M21.030035,48.013096 
	C13.582594,65.276154 12.451803,82.676018 19.570116,100.707527 
	C18.739769,101.939583 18.237787,102.725746 17.735804,103.511909 
	C8.764165,84.931236 8.787164,66.386513 18.713266,47.914474 
	C19.988956,47.971436 20.509497,47.992264 21.030035,48.013096 
z"/>
<path fill="#E5C556" opacity="1.000000" stroke="none" 
	d="
M86.229088,15.466292 
	C85.355324,15.404695 84.481567,15.343096 82.898582,15.193470 
	C81.129250,15.109248 80.069138,15.113052 79.009026,15.116857 
	C76.959419,15.054511 74.909821,14.992166 72.320244,14.737877 
	C71.508156,14.658201 71.236046,14.770471 70.963928,14.882740 
	C70.963928,14.882740 71.010513,15.038257 70.659164,15.056210 
	C69.318611,15.095204 68.329407,15.116245 66.954735,15.085228 
	C66.052582,15.008605 65.535912,14.984039 65.012390,14.635542 
	C65.006874,13.879624 65.008202,13.447639 65.380341,13.006971 
	C66.245132,12.963392 66.739120,12.928493 67.233109,12.893594 
	C67.233109,12.893594 67.685379,12.875141 68.340958,12.964817 
	C72.338318,12.525742 75.680099,11.996989 79.021889,11.468237 
	C79.536270,11.433917 80.050652,11.399597 81.054611,11.645518 
	C82.133827,12.229186 82.723465,12.532615 83.313095,12.836040 
	C83.892059,12.555935 84.471031,12.275830 85.771103,12.295818 
	C86.902412,12.615428 87.312607,12.634944 87.722809,12.654460 
	C89.336754,12.902638 90.950699,13.150817 93.015549,13.683871 
	C93.466461,13.968747 93.937317,14.025756 93.937317,14.025756 
	C93.937317,14.025756 93.975235,13.989361 94.169601,14.252071 
	C95.135406,14.684389 95.906860,14.853996 96.678307,15.023602 
	C105.969307,19.028843 115.351616,22.885817 122.614517,31.282166 
	C123.184914,32.850109 123.393196,33.908352 123.739044,35.665581 
	C122.203003,35.001324 121.094086,34.521774 119.985161,34.042221 
	C119.985161,34.042221 120.000969,33.996628 119.917847,33.760399 
	C119.551987,33.365608 119.269241,33.207050 118.986496,33.048489 
	C118.986496,33.048489 119.003197,33.000809 118.863243,32.699783 
	C116.845650,30.849073 114.968010,29.299387 113.090370,27.749701 
	C113.007866,27.413971 112.805710,27.182896 112.077721,26.746008 
	C109.775185,25.354502 107.878830,24.273462 105.982483,23.192423 
	C105.982483,23.192423 105.548149,23.045231 105.174805,22.687553 
	C102.872887,21.545191 100.944313,20.760506 99.015747,19.975821 
	C99.015747,19.975821 99.001686,20.002008 98.922089,19.766243 
	C98.658173,19.161705 98.381546,19.069305 98.012596,19.253283 
	C95.905724,18.502794 93.798859,17.752306 91.062317,16.814524 
	C89.615356,16.363794 88.798058,16.100359 87.733109,15.631191 
	C87.066666,15.439070 86.647881,15.452681 86.229088,15.466292 
z"/>
<path fill="#DFC152" opacity="1.000000" stroke="none" 
	d="
M65.009521,13.015653 
	C65.008202,13.447639 65.006874,13.879624 64.805046,14.735824 
	C64.337837,15.329809 64.140701,15.559319 63.705242,15.962769 
	C62.596474,16.382929 61.795586,16.688887 60.994698,16.994843 
	C60.819233,16.983913 60.643772,16.972984 59.924816,17.053349 
	C59.050224,17.356386 58.719128,17.568127 58.388027,17.779867 
	C57.786385,17.871563 57.184738,17.963261 55.949127,18.215439 
	C53.269859,19.275187 51.224560,20.174450 49.179260,21.073715 
	C49.179260,21.073715 49.054119,21.044638 48.801849,21.144920 
	C48.214394,21.376656 47.996048,21.615107 47.894535,21.960554 
	C47.723629,21.983652 47.552719,22.006750 46.968678,22.206547 
	C46.294083,22.521715 46.121853,22.732954 46.038864,23.016964 
	C46.038864,23.016964 46.012192,22.992334 45.691132,23.046167 
	C44.162762,23.967026 42.955448,24.834053 41.748131,25.701077 
	C41.748131,25.701077 41.946301,25.901655 41.577583,25.858894 
	C40.773731,26.197527 40.338596,26.578922 39.903458,26.960316 
	C39.435490,27.225126 38.967525,27.489937 38.077881,27.599113 
	C37.396843,26.517908 37.137478,25.592335 36.878113,24.666763 
	C38.416809,23.476780 39.955505,22.286797 41.947365,20.885586 
	C43.068924,20.172886 43.737316,19.671417 44.405708,19.169949 
	C48.684933,17.437870 52.964161,15.705793 57.946182,13.991794 
	C59.424641,13.726934 60.200310,13.443998 60.975975,13.161062 
	C61.153511,13.094769 61.331047,13.028478 61.892868,12.982252 
	C62.277157,13.002317 62.668098,12.898301 62.668098,12.898300 
	C63.168083,12.688613 63.668068,12.478928 64.581932,12.464766 
	C64.995811,12.660291 65.009521,13.015653 65.009521,13.015653 
z"/>
<path fill="#D9B957" opacity="1.000000" stroke="none" 
	d="
M75.000397,141.014374 
	C73.929680,140.892654 72.858963,140.770935 71.391632,140.735489 
	C64.369942,139.130066 57.744854,137.438370 51.241039,135.417542 
	C52.239632,134.437561 53.116951,133.786713 53.994270,133.135864 
	C58.260235,134.161804 62.526203,135.187729 67.504166,136.389374 
	C69.465286,136.632492 70.714424,136.699921 71.963562,136.767349 
	C72.131729,136.832382 72.299896,136.897415 72.430939,137.307922 
	C70.644966,137.890732 68.896103,138.128067 67.147240,138.365387 
	C67.175056,138.653534 67.202873,138.941666 67.230698,139.229797 
	C73.960365,139.229797 80.690033,139.229797 87.127014,139.515427 
	C82.889687,140.205490 78.945045,140.609924 75.000397,141.014374 
z"/>
<path fill="#DCBA4E" opacity="1.000000" stroke="none" 
	d="
M136.068100,88.023163 
	C136.380951,83.299332 136.693802,78.575508 137.332520,73.103050 
	C138.278610,69.850449 138.898849,67.346481 139.693726,65.183960 
	C141.149445,74.838356 141.256790,84.073898 137.989731,92.742447 
	C137.308990,90.937103 136.688553,89.480133 136.068100,88.023163 
z"/>
<path fill="#E9C75A" opacity="1.000000" stroke="none" 
	d="
M135.938446,88.377258 
	C136.688553,89.480133 137.308990,90.937103 137.992584,93.121368 
	C135.409439,99.315041 132.763123,104.781425 129.990417,109.957115 
	C129.247223,109.111420 128.630432,108.556419 128.013641,108.001411 
	C130.612030,101.578056 133.210419,95.154701 135.938446,88.377258 
z"/>
<path fill="#DFBB5A" opacity="1.000000" stroke="none" 
	d="
M120.581665,117.889771 
	C120.788223,117.858406 120.994781,117.827034 121.660568,118.018806 
	C122.446281,118.509239 122.772774,118.776527 122.996017,119.373932 
	C118.112106,123.694733 113.331444,127.685402 108.352295,131.322281 
	C107.749321,130.266769 107.344841,129.565063 106.940369,128.863342 
	C110.852745,125.753281 114.765114,122.643219 119.130341,119.188210 
	C119.916023,118.525436 120.248840,118.207603 120.581665,117.889771 
z"/>
<path fill="#DEBD55" opacity="1.000000" stroke="none" 
	d="
M106.586929,128.941345 
	C107.344841,129.565063 107.749321,130.266769 108.324471,131.337875 
	C108.495140,131.707260 108.432182,131.717728 108.195122,131.587860 
	C107.636948,131.821579 107.315826,132.185135 106.712296,132.784882 
	C100.289116,135.071960 94.148346,137.122849 88.119553,138.933746 
	C88.165749,137.816910 88.099968,136.940079 88.034187,136.063232 
	C94.100624,133.715286 100.167061,131.367325 106.586929,128.941345 
M92.830093,136.249084 
	C92.883430,136.410980 92.936768,136.572876 92.990097,136.734772 
	C93.042290,136.571884 93.094482,136.408997 92.830093,136.249084 
z"/>
<path fill="#DDBE5B" opacity="1.000000" stroke="none" 
	d="
M139.519104,64.842514 
	C138.898849,67.346481 138.278610,69.850449 137.400818,72.653511 
	C135.735184,66.580727 134.327118,60.208847 133.189316,53.525642 
	C133.964005,52.200729 134.468430,51.187145 135.202362,50.429977 
	C136.794281,55.405098 138.156693,60.123806 139.519104,64.842514 
z"/>
<path fill="#E8CA59" opacity="1.000000" stroke="none" 
	d="
M25.255470,110.385086 
	C29.176069,114.990845 33.096668,119.596611 37.038372,124.227165 
	C34.151333,126.033829 30.338547,123.167549 24.181545,114.091110 
	C24.588188,112.394379 24.921829,111.389732 25.255470,110.385086 
z"/>
<path fill="#E5C552" opacity="1.000000" stroke="none" 
	d="
M53.686127,132.944397 
	C53.116951,133.786713 52.239632,134.437561 50.991276,135.149078 
	C46.303467,132.494476 40.444656,132.024567 38.417267,125.583427 
	C43.404171,127.973267 48.391075,130.363098 53.686127,132.944397 
z"/>
<path fill="#E6C363" opacity="1.000000" stroke="none" 
	d="
M36.533417,24.740084 
	C37.137478,25.592335 37.396843,26.517908 37.812675,27.671009 
	C37.556000,28.338121 37.142860,28.777700 36.300514,29.580154 
	C35.217861,30.614372 34.564411,31.285715 33.910957,31.957058 
	C32.075394,33.824928 30.239828,35.692802 27.915112,37.595993 
	C26.962736,36.784145 26.499516,35.936977 26.036293,35.089813 
	C29.420435,31.664343 32.804577,28.238873 36.533417,24.740084 
z"/>
<path fill="#ECCD55" opacity="1.000000" stroke="none" 
	d="
M134.972855,50.173561 
	C134.468430,51.187145 133.964005,52.200729 133.167297,53.135849 
	C131.473846,50.474682 130.072662,47.891975 128.311707,44.825901 
	C127.309082,43.543957 126.666222,42.745380 126.023361,41.946800 
	C125.989594,41.777649 125.955826,41.608494 125.805656,40.990936 
	C125.513947,40.287659 125.274704,40.129463 124.971527,40.067944 
	C124.971527,40.067944 125.006386,40.016857 124.967247,39.643242 
	C126.289078,39.164352 127.650047,39.059071 129.154266,39.208824 
	C129.405197,39.626427 129.512878,39.788994 129.571136,40.280838 
	C131.347656,43.399673 133.173584,46.189232 134.995972,49.277554 
	C134.985901,49.775398 134.979370,49.974480 134.972855,50.173561 
z"/>
<path fill="#E1C34D" opacity="1.000000" stroke="none" 
	d="
M25.774231,35.292553 
	C26.499516,35.936977 26.962736,36.784145 27.658216,37.802544 
	C25.706617,41.121502 23.522757,44.269222 21.184465,47.715019 
	C20.509497,47.992264 19.988956,47.971436 19.079029,47.918015 
	C20.963816,43.755375 23.237991,39.625336 25.774231,35.292553 
z"/>
<path fill="#140C04" opacity="1.000000" stroke="none" 
	d="
M129.011017,38.953789 
	C127.650047,39.059071 126.289078,39.164352 124.936691,39.648003 
	C120.859871,40.603447 120.536362,37.607082 119.990738,34.429314 
	C121.094086,34.521774 122.203003,35.001324 123.739044,35.665581 
	C123.393196,33.908352 123.184914,32.850109 122.912857,31.422089 
	C124.353668,31.610920 125.858269,32.169525 127.677933,32.868217 
	C127.992989,33.008301 127.999313,33.502956 128.038971,34.112728 
	C128.389420,36.132931 128.700211,37.543362 129.011017,38.953789 
z"/>
<path fill="#DFBA4D" opacity="1.000000" stroke="none" 
	d="
M25.172365,110.066048 
	C24.921829,111.389732 24.588188,112.394379 24.093597,113.764435 
	C21.884033,110.819984 19.835421,107.510124 17.761307,103.856094 
	C18.237787,102.725746 18.739769,101.939583 19.603380,101.079285 
	C21.673094,103.919106 23.381178,106.833054 25.172365,110.066048 
z"/>
<path fill="#E0B957" opacity="1.000000" stroke="none" 
	d="
M123.099266,119.043808 
	C122.772774,118.776527 122.446281,118.509239 121.968437,117.960228 
	C121.834106,117.430496 121.851135,117.182480 122.036942,116.726807 
	C122.205711,116.519142 122.409233,116.232307 122.409233,116.232307 
	C122.409233,116.232307 122.057251,116.207024 122.057251,116.207031 
	C123.903702,113.650749 125.750145,111.094475 127.805115,108.269806 
	C128.630432,108.556419 129.247223,109.111420 129.980606,110.306747 
	C127.764549,113.645981 125.431908,116.344894 123.099266,119.043808 
z"/>
<path fill="#ECC94B" opacity="1.000000" stroke="none" 
	d="
M87.659760,136.115265 
	C88.099968,136.940079 88.165749,137.816910 87.979172,139.016464 
	C87.726822,139.339172 87.419701,139.229797 87.419701,139.229797 
	C80.690033,139.229797 73.960365,139.229797 67.230698,139.229797 
	C67.202873,138.941666 67.175056,138.653534 67.147240,138.365387 
	C68.896103,138.128067 70.644966,137.890732 72.678947,137.415817 
	C74.390594,137.138992 75.817123,137.099747 77.918243,137.358185 
	C80.064156,137.408310 81.535461,137.160782 83.006775,136.913239 
	C84.432961,136.664581 85.859146,136.415939 87.659760,136.115265 
z"/>
<path fill="#040109" opacity="1.000000" stroke="none" 
	d="
M133.967834,77.690308 
	C132.821838,80.412659 131.520187,80.524170 131.126236,77.901657 
	C130.621109,74.539009 130.706848,71.087585 130.465195,66.202515 
	C133.867371,70.116859 133.539688,73.833755 133.967834,77.690308 
z"/>
<path fill="#040102" opacity="1.000000" stroke="none" 
	d="
M56.411514,29.782036 
	C53.883495,29.637978 51.547020,29.188524 49.210548,28.739069 
	C49.528927,27.701529 49.847305,26.663986 50.165680,25.626444 
	C52.311470,26.909842 54.457264,28.193241 56.411514,29.782036 
z"/>
<path fill="#03010E" opacity="1.000000" stroke="none" 
	d="
M55.314537,142.951477 
	C54.247509,143.006241 53.498150,143.003937 52.187721,142.755417 
	C50.750996,142.671738 49.875336,142.834290 48.999680,142.996826 
	C47.822029,142.842819 46.644375,142.688828 45.231956,142.016571 
	C44.997349,141.331375 44.997509,141.164444 44.997673,140.997498 
	C46.225475,140.535110 47.453278,140.072739 48.841518,139.306091 
	C51.286270,139.733994 53.579227,140.442490 55.830269,141.265640 
	C55.947144,141.308395 55.706432,142.329025 55.314537,142.951477 
z"/>
<path fill="#DABC52" opacity="1.000000" stroke="none" 
	d="
M78.585793,11.345890 
	C75.680099,11.996989 72.338318,12.525742 68.557083,13.031960 
	C71.461662,12.414132 74.805679,11.818838 78.585793,11.345890 
z"/>
<path fill="#120A0A" opacity="1.000000" stroke="none" 
	d="
M79.056244,133.626114 
	C76.378044,133.491486 73.994942,133.149231 71.064575,132.728394 
	C75.102524,130.214081 76.709923,130.440369 79.056244,133.626114 
z"/>
<path fill="#140C04" opacity="1.000000" stroke="none" 
	d="
M49.535126,21.076477 
	C51.224560,20.174450 53.269859,19.275187 55.671246,18.347942 
	C55.662071,22.976284 52.483639,21.376398 49.535126,21.076477 
z"/>
<path fill="#140C04" opacity="1.000000" stroke="none" 
	d="
M112.979324,28.052864 
	C114.968010,29.299387 116.845650,30.849073 118.839554,32.708549 
	C117.607849,32.332802 116.259880,31.647272 114.745621,30.639004 
	C114.579330,30.316263 114.660606,30.268988 114.660606,30.268986 
	C114.063164,29.631334 113.465721,28.993681 112.979324,28.052864 
z"/>
<path fill="#140C04" opacity="1.000000" stroke="none" 
	d="
M106.000526,23.558426 
	C107.878830,24.273462 109.775185,25.354502 111.841492,26.719574 
	C110.013817,25.977215 108.016197,24.950821 106.000526,23.558426 
z"/>
<path fill="#140C04" opacity="1.000000" stroke="none" 
	d="
M99.075806,20.331940 
	C100.944313,20.760506 102.872887,21.545191 104.949524,22.644791 
	C103.110352,22.202492 101.123108,21.445274 99.075806,20.331940 
z"/>
<path fill="#140C04" opacity="1.000000" stroke="none" 
	d="
M34.274494,31.977757 
	C34.564411,31.285715 35.217861,30.614372 36.137924,29.835392 
	C37.208195,30.376606 38.011845,31.025459 39.905865,32.554649 
	C37.227673,32.271877 35.932850,32.135166 34.274494,31.977757 
z"/>
<path fill="#160F0A" opacity="1.000000" stroke="none" 
	d="
M37.384186,18.991688 
	C36.152649,15.143407 39.241192,17.782228 40.612804,17.021027 
	C39.896381,17.679394 38.825974,18.334717 37.384186,18.991688 
z"/>
<path fill="#140C04" opacity="1.000000" stroke="none" 
	d="
M42.098206,25.788668 
	C42.955448,24.834053 44.162762,23.967026 45.693993,23.063519 
	C44.828030,23.976778 43.638153,24.926517 42.098206,25.788668 
z"/>
<path fill="#140C04" opacity="1.000000" stroke="none" 
	d="
M126.019226,42.307575 
	C126.666222,42.745380 127.309082,43.543957 128.006882,44.659145 
	C127.379570,44.206619 126.697327,43.437485 126.019226,42.307575 
z"/>
<path fill="#D9B957" opacity="1.000000" stroke="none" 
	d="
M82.738876,136.825272 
	C81.535461,137.160782 80.064156,137.408310 78.342171,137.421936 
	C78.091499,137.188034 77.963287,137.028534 78.363831,136.993164 
	C79.818115,136.836456 80.871849,136.715103 81.925591,136.593750 
	C82.107384,136.641602 82.289177,136.689453 82.738876,136.825272 
z"/>
<path fill="#140C04" opacity="1.000000" stroke="none" 
	d="
M79.221977,15.346356 
	C80.069138,15.113052 81.129250,15.109248 82.570084,15.228605 
	C81.778847,15.426463 80.606888,15.501160 79.221977,15.346356 
z"/>
<path fill="#140C04" opacity="1.000000" stroke="none" 
	d="
M67.340210,15.137285 
	C68.329407,15.116245 69.318611,15.095204 70.674072,15.136001 
	C69.872818,15.459396 68.705307,15.720955 67.295364,15.743925 
	C67.052940,15.505336 67.340210,15.137285 67.340210,15.137285 
z"/>
<path fill="#120A0A" opacity="1.000000" stroke="none" 
	d="
M81.674789,136.411438 
	C80.871849,136.715103 79.818115,136.836456 78.369461,136.891006 
	C79.124359,136.625854 80.274170,136.427505 81.674789,136.411438 
z"/>
<path fill="#000000" opacity="1.000000" stroke="none" 
	d="
M12.045019,52.410172 
	C12.280135,52.796169 12.278140,53.180084 12.248362,53.561832 
	C12.247523,53.572571 11.949998,53.560165 11.790816,53.558556 
	C11.795216,53.174965 11.799615,52.791374 12.045019,52.410172 
z"/>
<path fill="#120A0A" opacity="1.000000" stroke="none" 
	d="
M71.670670,136.531403 
	C70.714424,136.699921 69.465286,136.632492 67.895615,136.355240 
	C68.842644,136.195419 70.110214,136.245438 71.670670,136.531403 
z"/>
<path fill="#140C04" opacity="1.000000" stroke="none" 
	d="
M61.355255,17.016087 
	C61.795586,16.688887 62.596474,16.382929 63.954777,16.023094 
	C64.677193,16.014751 64.842186,16.060287 65.007187,16.105820 
	C63.910061,16.416323 62.812935,16.726828 61.355255,17.016087 
z"/>
<path fill="#DABC52" opacity="1.000000" stroke="none" 
	d="
M83.275131,12.555237 
	C82.723465,12.532615 82.133827,12.229186 81.397598,11.831255 
	C81.913055,11.915977 82.575111,12.095204 83.275131,12.555237 
z"/>
<path fill="#140C04" opacity="1.000000" stroke="none" 
	d="
M87.980766,15.836924 
	C88.798058,16.100359 89.615356,16.363794 90.686874,16.825317 
	C89.785156,16.884348 88.629219,16.745291 87.474045,16.294992 
	C87.643463,15.934808 87.812119,15.885865 87.980766,15.836924 
z"/>
<path fill="#DABC52" opacity="1.000000" stroke="none" 
	d="
M96.497406,14.783220 
	C95.906860,14.853996 95.135406,14.684389 94.178589,14.276764 
	C94.767647,14.206777 95.542076,14.374807 96.497406,14.783220 
z"/>
<path fill="#DABC52" opacity="1.000000" stroke="none" 
	d="
M60.659607,13.121308 
	C60.200310,13.443998 59.424641,13.726934 58.323311,14.000841 
	C58.779507,13.688394 59.561375,13.384974 60.659607,13.121308 
z"/>
<path fill="#DABC52" opacity="1.000000" stroke="none" 
	d="
M65.292007,15.993438 
	C64.842186,16.060287 64.677193,16.014751 64.262657,15.908892 
	C64.140701,15.559319 64.337837,15.329809 64.811890,15.059755 
	C65.535912,14.984039 66.052582,15.008605 66.954735,15.085228 
	C67.340210,15.137285 67.052940,15.505336 66.922325,15.698759 
	C66.386749,15.888474 65.981796,15.884764 65.292007,15.993438 
z"/>
<path fill="#160F0A" opacity="1.000000" stroke="none" 
	d="
M43.991646,19.165934 
	C43.737316,19.671417 43.068924,20.172886 42.149933,20.700829 
	C42.458755,20.205505 43.018173,19.683712 43.991646,19.165934 
z"/>
<path fill="#1D1708" opacity="1.000000" stroke="none" 
	d="
M120.330055,117.920898 
	C120.248840,118.207603 119.916023,118.525436 119.290085,118.883087 
	C119.357460,118.599281 119.717957,118.275650 120.330055,117.920898 
z"/>
<path fill="#DABC52" opacity="1.000000" stroke="none" 
	d="
M65.380333,13.006971 
	C65.009521,13.015653 64.995811,12.660291 64.993385,12.482842 
	C65.628540,12.305062 66.266121,12.304731 67.068405,12.598997 
	C66.739120,12.928493 66.245132,12.963392 65.380333,13.006971 
z"/>
<path fill="#140C04" opacity="1.000000" stroke="none" 
	d="
M40.228638,26.950092 
	C40.338596,26.578922 40.773731,26.197527 41.496468,25.743584 
	C41.373985,26.093981 40.963902,26.516926 40.228638,26.950092 
z"/>
<path fill="#140C04" opacity="1.000000" stroke="none" 
	d="
M98.137009,19.430298 
	C98.381546,19.069305 98.658173,19.161705 98.934433,19.757032 
	C98.727974,19.946444 98.472984,19.821018 98.137009,19.430298 
z"/>
<path fill="#140C04" opacity="1.000000" stroke="none" 
	d="
M46.233688,22.967108 
	C46.121853,22.732954 46.294083,22.521715 46.763504,22.364115 
	C46.865326,22.606760 46.684341,22.797516 46.233688,22.967108 
z"/>
<path fill="#1D1708" opacity="1.000000" stroke="none" 
	d="
M122.069878,116.213135 
	C122.057251,116.207024 122.409233,116.232307 122.409233,116.232307 
	C122.409233,116.232307 122.205711,116.519142 122.118774,116.363007 
	C122.031837,116.206863 122.082504,116.219254 122.069878,116.213135 
z"/>
<path fill="#E5C556" opacity="1.000000" stroke="none" 
	d="
M114.627426,30.280716 
	C114.660606,30.268988 114.579330,30.316263 114.569550,30.273682 
	C114.559769,30.231100 114.594254,30.292442 114.627426,30.280716 
z"/>
<path fill="#140C04" opacity="1.000000" stroke="none" 
	d="
M119.087425,33.263039 
	C119.269241,33.207050 119.551987,33.365608 119.894653,33.767014 
	C119.635345,33.924290 119.379944,33.746868 119.087425,33.263039 
z"/>
<path fill="#DABC52" opacity="1.000000" stroke="none" 
	d="
M62.569412,12.817511 
	C62.668098,12.898301 62.277157,13.002317 62.175945,13.008206 
	C62.140343,12.826565 62.272339,12.734107 62.569412,12.817511 
z"/>
<path fill="#140C04" opacity="1.000000" stroke="none" 
	d="
M125.030609,40.260994 
	C125.274704,40.129463 125.513947,40.287659 125.685425,40.761826 
	C125.416534,40.881508 125.219231,40.705818 125.030609,40.260994 
z"/>
<path fill="#140C04" opacity="1.000000" stroke="none" 
	d="
M58.689762,17.791800 
	C58.719128,17.568127 59.050224,17.356386 59.684769,17.162518 
	C59.655972,17.388172 59.323734,17.595951 58.689762,17.791800 
z"/>
<path fill="#DABC52" opacity="1.000000" stroke="none" 
	d="
M87.490692,12.442377 
	C87.312607,12.634944 86.902412,12.615428 86.257721,12.387811 
	C86.435013,12.196570 86.846794,12.213432 87.490692,12.442377 
z"/>
<path fill="#DABC52" opacity="1.000000" stroke="none" 
	d="
M93.850571,13.916292 
	C93.937317,14.025756 93.466461,13.968747 93.359497,13.915937 
	C93.407593,13.705302 93.578018,13.686536 93.850571,13.916292 
z"/>
<path fill="#DABC52" opacity="1.000000" stroke="none" 
	d="
M71.223076,14.936426 
	C71.236046,14.770471 71.508156,14.658201 71.882965,14.686289 
	C71.817848,14.881135 71.650040,14.935624 71.223076,14.936426 
z"/>
<path fill="#140C04" opacity="1.000000" stroke="none" 
	d="
M48.130558,21.903912 
	C47.996048,21.615107 48.214394,21.376656 48.796371,21.208927 
	C48.896992,21.477116 48.671467,21.701990 48.130558,21.903912 
z"/>
<path fill="#DABC52" opacity="1.000000" stroke="none" 
	d="
M87.733109,15.631191 
	C87.812119,15.885865 87.643463,15.934808 87.220604,16.052832 
	C86.966400,16.121912 86.564880,15.830748 86.396988,15.648520 
	C86.647881,15.452681 87.066666,15.439070 87.733109,15.631191 
z"/>
<path fill="#040302" opacity="1.000000" stroke="none" 
	d="
M87.127014,139.515427 
	C87.419701,139.229797 87.726822,139.339172 87.867203,139.256454 
	C94.148346,137.122849 100.289116,135.071960 106.922112,132.739960 
	C107.753616,132.211792 108.092903,131.964767 108.432182,131.717728 
	C108.432182,131.717728 108.495140,131.707260 108.522964,131.691666 
	C113.331444,127.685402 118.112106,123.694733 122.996017,119.373932 
	C125.431908,116.344894 127.764549,113.645981 130.106995,110.597443 
	C132.763123,104.781425 135.409439,99.315041 138.052887,93.469742 
	C141.256790,84.073898 141.149445,74.838356 139.693726,65.183960 
	C138.156693,60.123806 136.794281,55.405098 135.202362,50.429977 
	C134.979370,49.974480 134.985901,49.775398 135.008179,48.852562 
	C135.313583,44.021515 135.099808,40.246857 129.620544,39.951561 
	C129.512878,39.788994 129.405197,39.626427 129.154266,39.208824 
	C128.700211,37.543362 128.389420,36.132931 128.041748,34.360058 
	C131.312210,34.394112 134.619537,34.790604 138.586990,35.266232 
	C138.835815,36.632133 139.258621,38.953041 139.841522,42.031139 
	C139.835571,45.076210 139.144699,47.485420 139.638336,49.620808 
	C140.235001,52.201962 141.834900,54.551193 143.000610,57.000801 
	C145.660385,62.561562 143.663910,68.142899 143.390488,73.792984 
	C143.064148,80.536049 144.964874,87.470596 144.066940,94.072754 
	C143.472595,98.442650 145.488327,102.212036 144.778183,106.111702 
	C144.373428,108.334328 142.115234,110.219437 140.171173,113.001266 
	C139.654541,113.001266 138.180908,112.987595 136.707626,113.003670 
	C130.707870,113.069099 128.777054,114.716827 129.100662,120.684708 
	C129.332413,124.958466 127.950333,127.324684 123.718254,127.944717 
	C123.554825,127.968658 123.397270,128.030457 123.235565,128.068588 
	C116.391502,129.683228 110.019585,131.681870 113.038773,140.099792 
	C110.924324,141.619553 109.621086,142.863541 108.073723,143.581039 
	C106.559021,144.283401 104.645706,145.089340 103.166542,144.742966 
	C95.643700,142.981384 88.201073,142.101654 80.494766,143.760742 
	C78.914467,144.100952 76.912834,142.484116 75.052902,141.391876 
	C78.945045,140.609924 82.889687,140.205490 87.127014,139.515427 
z"/>
<path fill="#02010C" opacity="1.000000" stroke="none" 
	d="
M143.000305,57.000401 
	C141.834900,54.551193 140.235001,52.201962 139.638336,49.620808 
	C139.144699,47.485420 139.835571,45.076210 140.000488,42.394623 
	C140.999359,43.562099 142.452896,45.009285 142.881378,46.714108 
	C143.385925,48.721573 143.002151,50.952309 143.003326,53.917389 
	C143.002258,55.499290 143.001434,56.250027 143.000610,57.000763 
	C143.000610,57.000763 143.000000,57.000000 143.000305,57.000401 
z"/>
<path fill="#040302" opacity="1.000000" stroke="none" 
	d="
M7.926668,109.065285 
	C9.037512,109.897743 9.771267,110.737846 10.505024,111.577950 
	C8.901320,112.112251 7.297613,112.646545 5.693906,113.180847 
	C5.404819,112.644989 5.115732,112.109123 4.826645,111.573265 
	C5.734290,110.739822 6.641935,109.906380 7.926668,109.065285 
z"/>
<path fill="#040302" opacity="1.000000" stroke="none" 
	d="
M112.463730,5.674504 
	C112.354965,6.880177 111.998665,7.815242 111.642372,8.750307 
	C111.160179,8.397145 110.677979,8.043984 110.195786,7.690825 
	C110.869263,6.928517 111.542740,6.166207 112.463730,5.674504 
z"/>
<path fill="#040302" opacity="1.000000" stroke="none" 
	d="
M36.449417,144.873047 
	C36.952408,144.146469 37.792744,143.494171 38.633080,142.841888 
	C38.926586,143.328979 39.220093,143.816071 39.513599,144.303162 
	C38.604652,144.517883 37.695705,144.732620 36.449417,144.873047 
z"/>
<path fill="#040302" opacity="1.000000" stroke="none" 
	d="
M144.919922,36.018616 
	C144.414917,36.603462 143.908051,36.867615 143.401184,37.131767 
	C143.397476,36.394882 143.393768,35.657990 143.390076,34.921104 
	C143.899414,35.180046 144.408737,35.438984 144.919922,36.018616 
z"/>
<path fill="#040302" opacity="1.000000" stroke="none" 
	d="
M143.331879,56.947941 
	C143.001434,56.250027 143.002258,55.499290 143.005188,54.373154 
	C143.225922,54.963543 143.444534,55.929333 143.331879,56.947941 
z"/>
<path fill="#040302" opacity="1.000000" stroke="none" 
	d="
M49.185692,143.242950 
	C49.875336,142.834290 50.750996,142.671738 51.812992,142.754669 
	C51.123459,143.163116 50.247581,143.326096 49.185692,143.242950 
z"/>
<path fill="#040302" opacity="1.000000" stroke="none" 
	d="
M44.834587,140.783722 
	C44.997509,141.164444 44.997349,141.331375 44.995468,141.748688 
	C44.488846,141.577591 43.983944,141.156113 43.479042,140.734619 
	C43.876530,140.679733 44.274017,140.624832 44.834587,140.783722 
z"/>
<path fill="#040302" opacity="1.000000" stroke="none" 
	d="
M49.620110,3.546124 
	C50.057579,3.659396 50.322891,3.937426 50.588203,4.215456 
	C50.473106,4.325266 50.358009,4.435075 50.242912,4.544885 
	C49.977924,4.266884 49.712936,3.988883 49.620110,3.546124 
z"/>
<path fill="#0F0F0F" opacity="1.000000" stroke="none" 
	d="
M94.654724,39.960541 
	C96.868324,39.241547 98.755157,38.698761 101.286598,37.970547 
	C98.377327,58.772465 95.519852,79.204025 92.662384,99.635590 
	C92.218513,99.676933 91.774651,99.718269 91.330780,99.759613 
	C89.516914,95.956566 87.703041,92.153519 85.642807,88.120018 
	C83.287132,84.488876 83.683380,81.398453 85.562431,77.809853 
	C89.930847,69.467072 93.778160,60.851448 98.245926,51.488739 
	C92.545547,49.319778 87.084427,47.241844 81.150909,44.984173 
	C85.667847,43.322536 89.997902,41.729649 94.654724,39.960541 
z"/>
<path fill="#DFBB5A" opacity="1.000000" stroke="none" 
	d="
M108.195122,131.587860 
	C108.092903,131.964767 107.753616,132.211792 107.204529,132.503769 
	C107.315826,132.185135 107.636948,131.821579 108.195122,131.587860 
z"/>
<path fill="#ECC94B" opacity="1.000000" stroke="none" 
	d="
M92.988388,136.247589 
	C93.094482,136.408997 93.042290,136.571884 92.990097,136.734772 
	C92.936768,136.572876 92.883430,136.410980 92.988388,136.247589 
z"/>
<path fill="#140C04" opacity="1.000000" stroke="none" 
	d="
M129.571136,40.280838 
	C135.099808,40.246857 135.313583,44.021515 135.011734,48.553802 
	C133.173584,46.189232 131.347656,43.399673 129.571136,40.280838 
z"/>
</svg>