<svg version="1.1" id="Layer_1" xmlns="http://www.w3.org/2000/svg" xmlns:xlink="http://www.w3.org/1999/xlink" x="0px" y="0px"
	 width="100%" viewBox="0 0 150 150" enable-background="new 0 0 150 150" xml:space="preserve">
<path fill="#FFFFFE" opacity="1.000000" stroke="none" 
	d="
M1.000000,61.000000 
	C1.000000,40.683205 1.000000,20.866407 1.000000,1.024806 
	C50.941761,1.024806 100.883537,1.024806 150.912659,1.024806 
	C150.912659,50.899944 150.912659,100.800095 150.912659,150.850128 
	C101.000336,150.850128 51.000225,150.850128 1.000000,150.850128 
	C1.000000,121.116829 1.000000,91.308418 1.000000,61.000000 
M11.987807,90.464058 
	C20.461363,124.595329 52.612408,145.836166 86.639000,140.056442 
	C119.239899,134.518890 145.726379,103.701324 140.395767,66.957588 
	C134.987808,29.680912 102.432167,5.817694 65.980354,10.984581 
	C28.743044,16.262808 3.331307,53.164532 11.987807,90.464058 
z"/>
<path fill="#FFDF62" opacity="1.000000" stroke="none" 
	d="
M11.899651,90.055054 
	C3.331307,53.164532 28.743044,16.262808 65.980354,10.984581 
	C102.432167,5.817694 134.987808,29.680912 140.395767,66.957588 
	C145.726379,103.701324 119.239899,134.518890 86.639000,140.056442 
	C52.612408,145.836166 20.461363,124.595329 11.899651,90.055054 
M81.806557,136.403610 
	C116.781174,132.478317 140.452026,102.405754 136.127884,67.261597 
	C132.303879,36.182198 103.576736,12.067747 70.562431,14.648990 
	C38.273239,17.173540 11.475240,46.289253 14.737112,81.279747 
	C17.845663,114.625542 47.430347,139.598480 81.806557,136.403610 
z"/>
<path fill="#FEFEFD" opacity="1.000000" stroke="none" 
	d="
M81.370529,136.503998 
	C47.430347,139.598480 17.845663,114.625542 14.737112,81.279747 
	C11.475240,46.289253 38.273239,17.173540 70.562431,14.648990 
	C103.576736,12.067747 132.303879,36.182198 136.127884,67.261597 
	C140.452026,102.405754 116.781174,132.478317 81.370529,136.503998 
M78.848068,72.635452 
	C85.477234,82.386353 92.106407,92.137245 99.445755,102.932747 
	C101.654541,77.648407 103.729568,53.895229 105.863274,29.470383 
	C95.008278,32.457111 84.949272,35.224827 74.126549,37.893635 
	C64.634529,35.255138 55.142502,32.616646 45.108807,29.827581 
	C46.121719,58.482456 47.107021,86.356316 48.142334,115.644936 
	C53.275490,108.071869 57.481453,101.725838 61.833488,95.481606 
	C67.314644,87.617340 72.915154,79.836258 78.848068,72.635452 
z"/>
<path fill="#FEDE5A" opacity="1.000000" stroke="none" 
	d="
M78.464165,72.019287 
	C72.915154,79.836258 67.314644,87.617340 61.833488,95.481606 
	C57.481453,101.725838 53.275490,108.071869 48.142334,115.644936 
	C47.107021,86.356316 46.121719,58.482456 45.108807,29.827581 
	C55.142502,32.616646 64.634529,35.255138 74.771927,38.206665 
	C82.268135,40.493362 89.118973,42.467022 96.334267,44.545681 
	C94.706512,46.972759 93.493187,48.728054 92.334656,50.518799 
	C87.701912,57.679646 83.086189,64.851501 78.464165,72.019287 
z"/>
<path fill="#070706" opacity="1.000000" stroke="none" 
	d="
M78.656113,72.327370 
	C83.086189,64.851501 87.701912,57.679646 92.334656,50.518799 
	C93.493187,48.728054 94.706512,46.972759 96.334267,44.545681 
	C89.118973,42.467022 82.268135,40.493362 75.153778,38.256123 
	C84.949272,35.224827 95.008278,32.457111 105.863274,29.470383 
	C103.729568,53.895229 101.654541,77.648407 99.445755,102.932747 
	C92.106407,92.137245 85.477234,82.386353 78.656113,72.327370 
z"/>
</svg>